<?xml version="1.0" standalone="no"?>
<!DOCTYPE svg PUBLIC "-//W3C//DTD SVG 20010904//EN"
 "http://www.w3.org/TR/2001/REC-SVG-20010904/DTD/svg10.dtd">
<svg version="1.0" xmlns="http://www.w3.org/2000/svg"
 width="309.000000pt" height="309.000000pt" viewBox="0 0 309.000000 309.000000"
 preserveAspectRatio="xMidYMid meet">
<metadata>
Created by potrace 1.11, written by Peter Selinger 2001-2013
</metadata>
<g transform="translate(0.000000,309.000000) scale(0.100000,-0.100000)"
fill="#000000" stroke="none">
<path d="M2320 2402 c-119 -75 -231 -147 -250 -160 l-35 -23 103 5 c56 2 102
1 101 -3 0 -3 -18 -33 -39 -66 -81 -127 -363 -598 -460 -770 -206 -362 -378
-716 -450 -925 -30 -88 -73 -270 -66 -277 5 -5 40 -11 105 -19 31 -3 59 -8 62
-10 4 -2 10 13 14 34 3 20 13 67 22 104 19 79 -13 71 258 68 523 -6 810 -9
900 -11 104 -2 357 10 364 17 7 7 5 503 -2 510 -5 5 -510 12 -1183 15 -75 0
-81 2 -77 19 7 26 24 28 169 23 162 -6 288 -7 736 -2 l357 3 1 258 c0 201 -3
258 -12 259 -7 0 -22 3 -33 5 -30 8 -327 7 -639 -2 -237 -6 -278 -5 -274 7 4
12 64 14 349 16 189 1 382 4 429 7 47 2 106 5 132 5 l47 1 1 193 c1 216 0 320
-4 324 -6 6 -251 22 -369 24 l-78 1 5 56 c3 32 8 95 11 142 3 47 8 101 10 120
8 74 16 190 13 189 -2 0 -100 -62 -218 -137z m104 -321 l25 -49 -55 -1 c-31 0
-54 3 -52 7 6 14 53 92 55 92 2 0 14 -22 27 -49z m445 -646 c3 -4 -47 -5 -112
-4 -65 2 -120 6 -123 10 -5 8 226 2 235 -6z m-719 -488 c0 -9 -139 -6 -145 3
-2 3 30 5 71 5 41 0 74 -4 74 -8z m173 -84 c-7 -2 -19 -2 -25 0 -7 3 -2 5 12
5 14 0 19 -2 13 -5z m60 0 c-7 -2 -21 -2 -30 0 -10 3 -4 5 12 5 17 0 24 -2 18
-5z m44 1 c-3 -3 -12 -4 -19 -1 -8 3 -5 6 6 6 11 1 17 -2 13 -5z m510 -216
c-3 -8 -6 -5 -6 6 -1 11 2 17 5 13 3 -3 4 -12 1 -19z m-4 -99 c-6 -6 -7 3 -4
23 4 28 6 29 9 9 2 -13 0 -27 -5 -32z m4 -61 c-3 -8 -6 -5 -6 6 -1 11 2 17 5
13 3 -3 4 -12 1 -19z m-1130 -104 c-3 -3 -12 -4 -19 -1 -8 3 -5 6 6 6 11 1 17
-2 13 -5z m284 -5 c6 -3 -52 -4 -127 -3 -75 2 -139 6 -143 9 -7 8 258 2 270
-6z"/>
<path d="M858 2092 c-10 -2 -18 -7 -18 -11 0 -3 -18 -102 -40 -219 -22 -116
-40 -214 -40 -217 0 -14 81 -2 125 19 83 39 143 111 175 213 24 72 24 56 1
-72 -20 -110 -16 -133 22 -155 23 -13 31 -13 68 0 62 22 77 50 107 200 17 87
28 125 32 110 3 -13 15 -27 26 -30 22 -5 22 -8 9 -80 -4 -19 -9 -46 -11 -60
-2 -14 -6 -36 -9 -50 -3 -14 -8 -42 -11 -63 -7 -37 -6 -38 22 -33 16 2 36 5
45 5 13 1 19 21 28 90 14 97 18 126 21 126 1 0 3 14 4 30 1 25 6 31 27 33 22
3 28 9 32 40 4 20 5 37 4 38 -1 1 -45 -1 -99 -5 -53 -3 -94 -3 -91 1 2 5 -14
8 -36 8 -32 0 -41 -4 -42 -17 0 -10 -2 -25 -4 -33 -2 -8 -6 -33 -10 -55 -12
-70 -35 -177 -41 -186 -3 -5 -9 -9 -14 -9 -17 0 -19 33 -5 93 8 34 17 78 20
97 3 19 10 49 14 67 10 36 6 43 -25 43 -37 0 -54 -11 -54 -35 0 -13 -4 -26
-10 -30 -5 -3 -9 5 -8 17 2 52 -3 69 -31 100 -28 31 -34 33 -98 34 -37 0 -76
-1 -85 -4z m103 -92 c25 -14 25 -54 -2 -132 -18 -56 -72 -148 -85 -148 -7 0 3
65 28 169 11 46 20 92 21 103 1 21 10 22 38 8z"/>
<path d="M1853 2013 c-35 -5 -37 -8 -51 -93 -6 -36 -12 -46 -30 -48 -26 -4
-26 2 -8 81 l14 57 -44 0 c-43 0 -44 -1 -44 -32 l-1 -33 -15 27 c-40 75 -155
29 -203 -82 -54 -126 -32 -250 46 -250 32 0 82 37 105 77 17 30 17 30 -9 42
-22 10 -29 9 -48 -9 -48 -45 -57 -15 -25 77 26 73 38 84 94 88 l46 3 -6 -37
c-3 -20 -15 -81 -25 -135 -10 -55 -17 -101 -16 -103 8 -7 76 19 80 31 3 7 9
35 12 62 8 54 20 74 43 74 11 0 13 -8 8 -37 -3 -21 -9 -57 -12 -79 l-6 -41 38
6 c23 4 40 12 41 21 6 43 54 298 59 318 4 12 2 21 -2 20 -5 0 -24 -3 -41 -5z"/>
<path d="M680 1520 c-20 -5 -26 -14 -33 -50 -4 -25 -14 -79 -22 -120 -8 -41
-17 -93 -21 -115 -3 -22 -12 -66 -19 -98 -16 -68 -11 -74 58 -63 120 20 233
156 244 297 11 126 -68 183 -207 149z m104 -101 c15 -22 15 -28 -4 -99 -16
-60 -69 -160 -86 -160 -10 0 -10 11 1 58 7 31 21 94 30 140 19 86 32 99 59 61z"/>
<path d="M1280 1442 c0 -7 -28 -12 -82 -14 l-83 -3 0 -30 c0 -24 5 -31 23 -33
21 -3 22 -7 17 -40 -3 -20 -8 -53 -11 -72 -3 -19 -12 -63 -20 -98 -8 -35 -14
-68 -14 -73 0 -9 79 -3 88 6 3 3 14 87 15 113 0 6 3 12 6 12 4 0 7 12 7 28 2
66 4 73 17 66 9 -5 9 -4 0 6 -16 17 1 50 26 50 22 0 39 66 22 83 -8 8 -11 8
-11 -1z"/>
<path d="M1407 1440 c-32 -4 -62 -11 -67 -16 -8 -9 -100 -315 -100 -334 0 -14
66 -12 77 3 6 6 13 24 17 40 4 18 13 27 27 27 18 0 20 -5 17 -42 l-3 -43 35 3
c19 2 38 6 41 8 4 2 10 61 13 131 4 71 9 152 11 181 3 28 2 51 -2 51 -5 -1
-34 -5 -66 -9z"/>
<path d="M964 1432 c-19 -3 -28 -26 -69 -165 -27 -89 -50 -168 -53 -174 -3 -9
5 -13 23 -13 40 0 63 16 70 50 5 23 12 30 29 30 22 0 23 -3 16 -40 l-7 -40 43
3 c24 1 44 7 45 12 0 6 2 57 4 115 3 58 7 133 10 168 l5 63 -48 -3 c-26 -1
-57 -4 -68 -6z m39 -84 c-5 -38 -10 -95 -12 -120 -1 -10 -9 -18 -19 -18 -18 0
-18 2 -1 71 19 77 26 99 32 99 3 0 2 -15 0 -32z"/>
<path d="M488 962 c-18 -2 -28 -10 -29 -20 0 -9 -2 -24 -4 -32 -2 -8 -12 -67
-24 -130 -11 -63 -27 -148 -35 -188 -9 -40 -16 -75 -16 -78 0 -10 70 -3 112
12 100 33 193 168 202 289 10 127 -47 167 -206 147z m101 -96 c6 -7 12 -24 13
-37 4 -51 -58 -197 -98 -230 -15 -12 -16 -11 -10 16 4 17 9 43 12 59 4 24 11
57 39 184 6 25 27 29 44 8z"/>
<path d="M720 876 c0 -2 -9 -48 -20 -102 -12 -55 -23 -129 -26 -165 -6 -61 -4
-68 17 -83 40 -28 100 -15 141 30 16 19 42 103 54 178 3 21 8 48 10 60 18 89
19 88 -23 84 l-38 -3 -17 -95 c-10 -52 -20 -107 -23 -122 -8 -41 -24 -78 -34
-78 -16 0 -20 26 -10 66 11 47 49 226 49 231 0 1 -18 3 -40 3 -22 0 -40 -2
-40 -4z"/>
<path d="M953 873 c-13 -2 -23 -6 -23 -8 0 -2 -13 -77 -30 -167 -16 -89 -30
-169 -30 -175 0 -19 49 -15 95 6 56 25 93 66 126 136 32 69 35 58 14 -52 -22
-113 -24 -107 42 -99 95 11 103 15 103 46 0 27 -2 28 -36 23 -34 -6 -35 -5
-29 23 14 63 15 64 51 64 31 0 34 2 34 30 0 27 -3 30 -30 30 -32 0 -36 11 -24
58 5 17 14 22 40 22 28 0 36 5 44 26 16 41 13 46 -27 40 -21 -3 -59 -7 -85 -8
-26 -1 -46 -4 -46 -7 3 -17 -16 -81 -24 -81 -5 0 -8 6 -6 13 11 61 -63 98
-159 80z m76 -72 c10 -7 12 -21 8 -56 -9 -61 -67 -179 -81 -164 -4 4 13 94 30
164 3 11 7 29 8 40 5 30 10 32 35 16z"/>
</g>
</svg>
